# xmcd
#
# Track frame offsets:
#	150
#	13090
#	24722
#	44265
#	56722
#	69697
#	84400
#	106522
#	118942
#	134207
#	154402
#	165705
#	181032
#	194212
#	206115
#	221877
#	235177
#	247642
#	257915
#	274650
#	287140
#
# Disc length: 4091 seconds
#
# Revision: 0
# Processed by: cddbd v1.4PL0 Copyright (c) Steve Scherf et al.
# Submitted via: EasyCDDAExtractor 4.5.0.2
#
DISCID=430ff915
DTITLE=Southern Country Band - I Gotta Tell You Something
DYEAR=2001
DGENRE=Country
TTITLE0=Mandy - Trouble's Here
TTITLE1=Mandy - All I Want Is Everything
TTITLE2=Rene - One Foot In Front Of The Other
TTITLE3=Mandy - Fooling Around
TTITLE4=Rene - Much Too Young
TTITLE5=Mandy - One Love
TTITLE6=Rene - Lonely Where The Lonely Go
TTITLE7=Mandy - Mi Vida Loca
TTITLE8=Rene - On A Good Night
TTITLE9=Mandy - I Gotta Tell You Something
TTITLE10=Rinus - Steel Instrumental - Tracey Walls
TTITLE11=Mandy - I Fell In Love
TTITLE12=Rene - Up To My Ears In Tears
TTITLE13=Mandy - Do You Wanna Make Something Of It
TTITLE14=Rene - There Goes
TTITLE15=Mandy - San Antonio Rose
TTITLE16=Rene - Johnny B. Goode
TTITLE17=Mandy - It Only Hurts Me When I Laugh
TTITLE18=Rene - Rivers Invitation
TTITLE19=Mandy - My Shoes Keep Walking Back To You
TTITLE20=Mandy - Rose Of My Heart
EXTD=
EXTT0=
EXTT1=
EXTT2=
EXTT3=
EXTT4=
EXTT5=
EXTT6=
EXTT7=
EXTT8=
EXTT9=
EXTT10=
EXTT11=
EXTT12=
EXTT13=
EXTT14=
EXTT15=
EXTT16=
EXTT17=
EXTT18=
EXTT19=
EXTT20=
PLAYORDER=
